<?xml version="1.0" standalone="no"?>
<!DOCTYPE svg PUBLIC "-//W3C//DTD SVG 20010904//EN"
 "http://www.w3.org/TR/2001/REC-SVG-20010904/DTD/svg10.dtd">
<svg version="1.0" xmlns="http://www.w3.org/2000/svg"
 width="48.000000pt" height="46.000000pt" viewBox="0 0 48.000000 46.000000"
 preserveAspectRatio="xMidYMid meet">

<g transform="translate(0.000000,46.000000) scale(0.100000,-0.100000)"
fill="#000000" stroke="none">
<path d="M0 230 l0 -230 240 0 240 0 0 230 0 230 -240 0 -240 0 0 -230z m341
71 c16 -16 29 -34 29 -40 0 -14 -87 -15 -95 -1 -15 25 -55 -8 -55 -45 0 -31
33 -51 50 -30 16 19 90 20 90 2 0 -25 -57 -68 -97 -74 -78 -10 -131 42 -119
116 14 88 136 133 197 72z"/>
</g>
</svg>
